<?xml version="1.0" encoding="utf-8"?>
<!-- Generator: Adobe Illustrator 18.1.1, SVG Export Plug-In . SVG Version: 6.00 Build 0)  -->
<svg version="1.1" id="Ebene_1" xmlns="http://www.w3.org/2000/svg" xmlns:xlink="http://www.w3.org/1999/xlink" x="0px" y="0px"
	 viewBox="0 0 476.1 108" enable-background="new 0 0 476.1 108" xml:space="preserve">
<path fill="#66CC66" d="M90.1,17.4C68.4,7.1,34,0.2,34,0.2C19.3-2.2,21.5,15.6,21.8,27.5c0,0.9,0.1,1.8,0.1,2.8
	c10.5,2,26.6,5.4,39.4,10c15.3,5.5,13,11.1,12.5,21.6c-0.3,6.6-0.6,18.8,1.5,28.8c10.4,1.8,18.6,2.5,17.7-0.4
	c-8.5-9.7-0.1-40,2.4-46.1C97.5,38.7,105.6,24.9,90.1,17.4z"/>
<path fill="#66CC66" d="M79.6,105.9c-8.8-7.6-8.4-31.8-7.9-42.2c0.5-10.4,2.9-16-12.5-21.6C38.6,34.7,8.9,30.2,8.9,30.2
	c-12.3-1.5-8.8,11.3-7.4,20.3C3.9,64,8.9,80.2,12.3,88.1c3.8,8.8,12,9.8,12,9.8S88.3,113.5,79.6,105.9z"/>
<g>
	<path fill="#FFFFFF" d="M131.7,86.3c-7.3,0-13-1.6-15-2.4l0.5-3.7c2.5,0.8,8.6,2.3,13.5,2.3c8,0,12.3-2.1,12.3-7.7
		c0-4.9-3.7-7.5-12-8.7c-10.9-1.6-15.2-5.7-15.2-14.4c0-8.9,5.9-13.6,17.8-13.6c7.3,0,12.6,1.6,14.5,2.4l-0.5,3.5
		c-1.7-0.6-7.8-2.2-13-2.2c-8.6,0-11.6,2.8-11.6,7.8c0,4.8,3,6.4,11.2,7.6C145.8,59,150.4,63,150.4,72
		C150.4,81.5,145.1,86.3,131.7,86.3z"/>
	<path fill="#FFFFFF" d="M198.5,85.2h-9.5V61.6c0-16-2.2-19.7-10.5-19.7c-3.6,0-7.7,0.9-9.3,1.5v41.8h-9.5V20h9.5v19.7
		c1.3-0.5,7-1.7,11.2-1.7c15.6,0,18.2,5.8,18.2,23.6V85.2z"/>
	<path fill="#FFFFFF" d="M248.1,39.1l-19.5,48.4c-6.1,15.3-8.5,17.8-14.7,17.8c-2.3,0-5.1-0.2-5.8-0.4l0.5-4
		c0.8,0.3,3.2,0.5,4.9,0.5c3.8,0,6-2.3,9.8-12.1l1.4-3.7l-19.3-46.4h10.6l13.6,35.8l14.1-35.8H248.1z"/>
	<path fill="#FFFFFF" d="M278,23.2c-0.8-0.2-3.2-0.5-5.5-0.5c-6.8,0-7.7,5.8-7.7,12.7v3.8h12.5v3.8h-12.5v42.3h-9.5v-49
		c0-9.2,1.3-17.3,16-17.3c2.8,0,6.5,0.5,7.3,0.8L278,23.2z"/>
	<path fill="#FFFFFF" d="M309.9,85.4c-0.9,0.4-5,0.8-8.1,0.8c-13.1,0-15.2-5-15.2-14.4V28.1h9.5v11h12.5v3.8h-12.5v29.9
		c0,7.2,1.4,9.7,7.3,9.7c1.9,0,5.2-0.4,5.9-0.5L309.9,85.4z"/>
	<path fill="#FFFFFF" d="M339.9,86.3c-4.8,0-9.1-0.9-11.6-1.7v19.7h-9.5V41c4-1.4,11.3-3,20.6-3c15.4,0,20.4,7.9,20.4,23.6
		C359.8,78,353.3,86.3,339.9,86.3z M338.7,41.8c-4.5,0-8.3,0.8-10.3,1.4v37.6c2,0.8,6.1,1.6,10.3,1.6c10.7,0,11.4-10.3,11.4-20.9
		C350.1,51.5,349.1,41.8,338.7,41.8z"/>
	<path fill="#FFFFFF" d="M378.6,85.2h-9.5V20h9.5V85.2z"/>
	<path fill="#FFFFFF" d="M425.9,83.3c-4.6,1.4-12,3-19.8,3c-14.3,0-18.7-4.2-18.7-13.7c0-8.1,5.3-14.2,23.1-14.2h6V53
		c0-7.2-2-11.1-11.5-11.1c-4,0-11.4,1.6-12.9,2.2l-0.5-3.7c1.5-0.4,9-2.3,16.9-2.3c12.6,0,17.4,4,17.4,14.6V83.3z M416.5,61.7h-5
		c-12.6,0-14.8,4.6-14.8,10.9c0,6.8,1.8,10.1,9.8,10.1c3.4,0,7.4-0.8,9.9-1.5V61.7z"/>
	<path fill="#FFFFFF" d="M476.1,85.2h-9.5V61.6c0-16-2.2-19.7-10.5-19.7c-3.2,0-6.8,0.7-9.3,1.4v41.8h-9.5V41c4.1-1.4,11.7-3,19.3-3
		c16.7,0,19.5,5.5,19.5,23.6V85.2z"/>
</g>
</svg>
